PathFileType	4	(X/Y/Z)	C:\Users\WrightLab\Desktop\Jo\P1_boxCal29.trc
DataRate	CameraRate	NumFrames	NumMarkers	Units	OrigDataRate	OrigDataStartFrame	OrigNumFrames
100.00	100.00	      46	19	mm	100.00	1009	      1153
Frame#	Time	Headset_Front			Headset_Back			Headset_Left			Headset_Right			Left_Shoulder			Right_Shoulder			Sternum			C7			Left Elbow			Right Elbow			Left Wrist			Right Wrist			Left ASIS			Right ASIS			S2			Left Knee			Right Knee			Left Ankle			Right Ankle			
		X1	Y1	Z1	X2	Y2	Z2	X3	Y3	Z3	X4	Y4	Z4	X5	Y5	Z5	X6	Y6	Z6	X7	Y7	Z7	X8	Y8	Z8	X9	Y9	Z9	X10	Y10	Z10	X11	Y11	Z11	X12	Y12	Z12	X13	Y13	Z13	X14	Y14	Z14	X15	Y15	Z15	X16	Y16	Z16	X17	Y17	Z17	X18	Y18	Z18	X19	Y19	Z19	

1009	10.080																-576.12415	1242.29187	-1200.04041										-639.64850	1000.57953	-1068.27112				-546.67896	776.51447	-995.22040				-476.51508	850.58917	-1301.03418							-484.62741	438.50290	-1264.38013							
1010	10.090																-574.64355	1242.18652	-1201.25977										-641.37207	1000.04755	-1071.56580				-551.41913	774.99457	-992.37323				-470.33749	851.05884	-1301.40454							-482.95999	435.45435	-1265.67468							
1011	10.100																-575.60938	1240.82434	-1205.72742										-642.15118	999.45508	-1073.49194				-557.19470	775.57062	-991.00122				-467.33701	848.79236	-1302.04187							-480.00464	432.93372	-1269.01135							
1012	10.110																-572.55005	1239.51941	-1203.91931										-642.79358	999.12769	-1076.08606				-562.87579	775.80750	-990.41956				-463.70395	848.73938	-1300.64124							-476.08234	431.80679	-1270.64014							
1013	10.120																												-643.30664	997.81781	-1078.22205				-567.20996	775.59650	-988.06909				-458.66675	847.85449	-1301.66443							-474.02954	428.98108	-1273.59802							
1014	10.130																												-643.26807	996.12012	-1079.84656				-572.19073	774.43640	-986.96527				-453.31839	846.75983	-1303.25610							-470.95917	427.17651	-1274.59888							
1015	10.140																												-642.94727	995.07385	-1081.79834				-576.60193	773.47394	-985.52405				-450.11334	845.79791	-1301.93799							-471.54233	422.96683	-1280.12207							
1016	10.150																												-642.58185	994.31689	-1083.40283				-580.28223	772.99371	-985.70734				-445.61340	845.07080	-1302.25232							-467.70374	419.68079	-1281.93323							
1017	10.160																												-641.87158	991.99335	-1085.00183				-583.94025	771.68463	-985.10956				-440.00058	844.24054	-1303.79797							-464.00348	417.01947	-1282.10010							
1018	10.170																												-640.71356	990.28442	-1086.34521				-586.81616	770.60889	-984.59515				-434.41214	843.37817	-1304.73047							-459.28918	414.35159	-1281.93665							
1019	10.180																												-639.43854	987.96484	-1087.36035				-590.15717	769.67236	-984.74231				-430.78110	842.73193	-1303.22925							-455.31720	411.67459	-1279.46692							
1020	10.190																												-638.40161	987.48102	-1090.01660				-592.11884	769.09351	-984.59436				-425.65558	842.20526	-1304.01038							-452.11749	409.89883	-1282.45349							
1021	10.200																												-636.27594	985.81006	-1091.13403				-593.56042	768.77325	-985.64935				-421.33340	842.59283	-1304.11218							-447.73544	410.09763	-1278.81750							
1022	10.210																												-634.63477	985.23309	-1092.84119				-594.84570	768.68756	-986.46906				-415.70337	843.39667	-1306.25793							-444.95593	409.44037	-1279.27222							
1023	10.220																												-632.18042	984.62396	-1095.03479				-595.57489	768.73474	-987.42493				-411.69101	844.42615	-1305.39917							-439.15125	410.46530	-1278.09912							
1024	10.230																												-629.98932	983.08960	-1097.35950				-595.57288	769.13141	-988.23773				-407.68008	845.64679	-1304.65869							-438.22656	410.54355	-1278.43848							
1025	10.240																												-628.66522	983.01166	-1098.97864				-594.80133	769.01935	-989.86945				-402.93185	846.76501	-1304.82898							-433.95615	411.62448	-1276.07996							
1026	10.250																												-628.50995	980.78497	-1107.07312				-593.12555	768.29962	-991.46820				-400.76157	847.15796	-1302.05298							-431.68054	411.06180	-1274.87537							
1027	10.260																												-625.46881	979.51483	-1107.25208				-591.51416	767.31842	-992.79657				-396.14828	847.96021	-1303.49768							-432.02747	409.46460	-1273.46741							
1028	10.270																												-622.66779	979.87933	-1108.49524				-589.44971	767.45123	-995.08356				-393.51440	848.66095	-1301.89380							-432.34427	408.53027	-1272.76770							
1029	10.280																												-621.05292	978.65790	-1109.11609				-586.77765	766.53821	-997.50397				-389.45901	848.16968	-1301.49719							-433.35501	405.92621	-1272.74463							
1030	10.290																												-619.95416	977.32758	-1111.01758				-583.16083	765.27502	-998.79163				-387.22690	847.94031	-1298.91675							-434.47946	406.03946	-1271.45630							
1031	10.300																												-618.16644	977.02887	-1112.14453				-580.00659	764.42712	-1001.20233				-383.34467	848.17804	-1299.69958							-435.80093	405.54587	-1271.27954							
1032	10.310																												-615.98016	975.47955	-1113.50977				-575.47644	763.48981	-1004.19775				-380.86655	848.05115	-1297.34595							-436.06946	404.98456	-1271.93701							
1033	10.320																												-613.53625	975.94983	-1115.29138				-571.21863	762.85657	-1006.66260				-377.55307	848.64856	-1297.75403							-437.92453	405.11301	-1272.75989							
1034	10.330																												-611.76379	975.57452	-1116.21411				-565.74017	761.36823	-1008.57648				-375.99280	848.97247	-1295.74377							-437.76520	405.26852	-1272.56213							
1035	10.340																												-610.93304	975.15491	-1118.26038				-560.51770	759.89734	-1010.83746				-373.14124	850.25159	-1295.42883							-437.29825	406.13644	-1270.83215							
1036	10.350																												-609.62067	974.55829	-1122.14832				-555.42609	759.56476	-1014.22034				-372.61407	851.65137	-1291.06421							-437.52087	406.19788	-1269.69458							
1037	10.360																												-608.32123	974.13074	-1123.20984				-549.78046	758.73669	-1017.78558				-369.73517	852.01825	-1291.98901							-437.23187	406.02774	-1268.89209							
1038	10.370																												-607.12860	975.84320	-1126.57336				-543.89789	759.45953	-1021.78540				-367.84882	853.52161	-1290.85034							-437.50900	407.64743	-1267.23743							
1039	10.380																												-606.67969	975.08685	-1132.29321				-537.79303	759.05914	-1026.05139				-367.13132	854.03467	-1288.49902							-437.94525	407.94632	-1267.99524							
1040	10.390																												-605.15857	974.73798	-1134.68799				-531.24280	759.17145	-1029.48303				-366.29996	855.33234	-1287.13647							-438.44489	407.64169	-1268.62830							
1041	10.400																												-604.06500	974.75385	-1137.27966				-524.62543	758.03564	-1033.12378				-366.16513	856.59338	-1284.84729							-440.37711	407.82797	-1267.83032							
1042	10.410																												-602.54181	976.08459	-1140.54346				-519.06793	759.07104	-1037.17944				-366.07315	857.26910	-1283.90869							-440.75143	407.59546	-1268.30396							
1043	10.420																												-600.57672	975.97821	-1140.97241				-511.69492	759.42804	-1041.89075				-365.80109	858.77057	-1281.07581							-442.26443	407.20071	-1269.25757							
1044	10.430																												-599.48480	975.25909	-1141.41089				-505.03088	759.17560	-1045.33594				-365.94623	859.44122	-1278.94836							-443.26019	407.70889	-1269.26990							
1045	10.440																												-597.68414	975.75659	-1143.90869				-498.84604	759.22668	-1049.78735				-365.67847	860.28497	-1276.65796							-443.83383	408.46780	-1266.59583							
1046	10.450																												-596.78174	974.81226	-1145.38525				-492.67264	758.90851	-1058.16772				-365.50549	860.85931	-1275.10120							-445.59430	408.69412	-1268.13416							
1047	10.460																												-595.32135	974.75903	-1149.07007				-487.26553	759.15405	-1060.68970				-365.15503	861.08405	-1273.86084							-447.01016	409.24579	-1270.68445							
1048	10.470																												-594.89081	974.84583	-1151.18616				-480.57986	758.98883	-1064.44067				-364.70898	861.47705	-1271.64697							-448.29999	408.92194	-1272.98010							
1049	10.480																												-593.95032	974.23242	-1155.35193				-474.58527	760.53815	-1067.83240				-364.50400	861.86957	-1270.07483							-448.89816	408.98898	-1272.07043							
1050	10.490																												-593.33398	973.41388	-1158.47278				-468.96774	761.71045	-1071.82312				-364.26074	862.28644	-1268.22705							-449.43872	409.27750	-1272.41431							
1051	10.500																												-591.79828	973.39624	-1160.11133				-463.06152	761.47467	-1079.07947				-364.04178	861.23798	-1265.59949							-449.67163	409.35599	-1273.90100							
1052	10.510																												-591.41919	973.15576	-1161.92151				-457.87546	762.35645	-1082.84863				-364.81442	861.69354	-1262.91284							-449.99640	410.08713	-1274.45630							
1053	10.520																												-590.80103	972.73621	-1165.17578				-451.85046	763.28259	-1085.60693				-366.82785	858.44641	-1272.77942							-450.42099	410.23138	-1274.71338							
1054	10.530																												-589.50385	973.05963	-1165.41785				-447.41260	764.98053	-1087.93872				-366.83340	858.10785	-1272.73987							-450.23752	411.22079	-1275.09229							
